<svg width="100" height="20" viewBox="0 0 100 20" fill="none" xmlns="http://www.w3.org/2000/svg">
<path fill-rule="evenodd" clip-rule="evenodd" d="M11.25 7C10.8358 7 10.5 6.66421 10.5 6.25C10.5 5.83579 10.8358 5.5 11.25 5.5H16.5C16.9142 5.5 17.25 5.83579 17.25 6.25V11.5C17.25 11.9142 16.9142 12.25 16.5 12.25C16.0858 12.25 15.75 11.9142 15.75 11.5V8.06066L11.112 12.6987C10.9781 12.8326 10.8478 12.9629 10.7284 13.0643C10.5972 13.1756 10.4308 13.2953 10.2135 13.3659C9.91226 13.4638 9.58774 13.4638 9.28647 13.3659C9.06919 13.2953 8.90277 13.1756 8.77163 13.0643C8.65223 12.963 8.52191 12.8326 8.38809 12.6988L6.3182 10.6289C6.16094 10.4716 6.07448 10.386 6.0076 10.3292C6.00494 10.3269 6.0024 10.3248 6 10.3228C5.9976 10.3248 5.99506 10.3269 5.9924 10.3292C5.92552 10.386 5.83906 10.4716 5.6818 10.6289L2.03033 14.2803C1.73744 14.5732 1.26256 14.5732 0.96967 14.2803C0.676777 13.9874 0.676777 13.5126 0.96967 13.2197L4.62114 9.5682C4.62678 9.56256 4.63242 9.55692 4.63805 9.55129C4.77188 9.41743 4.90222 9.28706 5.02163 9.18568C5.15277 9.07435 5.31919 8.95468 5.53647 8.88408C5.83774 8.78619 6.16226 8.78619 6.46353 8.88408C6.68081 8.95468 6.84723 9.07435 6.97837 9.18568C7.09778 9.28705 7.22812 9.41742 7.36195 9.55129L9.4318 11.6211C9.58906 11.7784 9.67552 11.864 9.7424 11.9208C9.74506 11.9231 9.7476 11.9252 9.75 11.9272C9.7524 11.9252 9.75494 11.9231 9.7576 11.9208C9.82448 11.864 9.91094 11.7784 10.0682 11.6211L14.6893 7H11.25Z" fill="#73D13D"/>
<path d="M31.9476 4.81818V15H30.307L25.5094 8.06463H25.4249V15H23.5804V4.81818H25.231L30.0236 11.7585H30.1131V4.81818H31.9476ZM33.9574 15V4.81818H40.5795V6.36435H35.8018V9.12855H40.2365V10.6747H35.8018V13.4538H40.6193V15H33.9574ZM44.604 15L41.7305 4.81818H43.7141L45.5487 12.3004H45.6431L47.6019 4.81818H49.4066L51.3704 12.3054H51.4599L53.2944 4.81818H55.2781L52.4045 15H50.5849L48.5465 7.85582H48.467L46.4237 15H44.604ZM60.0297 15V4.81818H63.8478C64.63 4.81818 65.2863 4.96401 65.8166 5.25568C66.3502 5.54735 66.7529 5.94839 67.0247 6.45881C67.2998 6.96591 67.4373 7.54261 67.4373 8.18892C67.4373 8.84186 67.2998 9.42187 67.0247 9.92898C66.7496 10.4361 66.3436 10.8355 65.8066 11.1271C65.2697 11.4155 64.6085 11.5597 63.823 11.5597H61.2924V10.0433H63.5744C64.0318 10.0433 64.4063 9.96378 64.698 9.80469C64.9896 9.6456 65.2051 9.42685 65.3443 9.14844C65.4868 8.87003 65.5581 8.55019 65.5581 8.18892C65.5581 7.82765 65.4868 7.50947 65.3443 7.23438C65.2051 6.95928 64.988 6.7455 64.693 6.59304C64.4013 6.43726 64.0252 6.35938 63.5645 6.35938H61.8741V15H60.0297ZM75.4577 4.81818H77.3022V11.4702C77.3022 12.1993 77.1299 12.8407 76.7852 13.3942C76.4438 13.9477 75.9632 14.3802 75.3434 14.6918C74.7236 15 73.9994 15.1541 73.1708 15.1541C72.3389 15.1541 71.613 15 70.9933 14.6918C70.3735 14.3802 69.8929 13.9477 69.5515 13.3942C69.2101 12.8407 69.0394 12.1993 69.0394 11.4702V4.81818H70.8839V11.3161C70.8839 11.7403 70.9767 12.1181 71.1623 12.4496C71.3512 12.781 71.6164 13.0412 71.9577 13.2301C72.2991 13.4157 72.7035 13.5085 73.1708 13.5085C73.6381 13.5085 74.0425 13.4157 74.3839 13.2301C74.7286 13.0412 74.9937 12.781 75.1793 12.4496C75.3649 12.1181 75.4577 11.7403 75.4577 11.3161V4.81818ZM79.307 4.81818H81.5641L84.5868 12.196H84.7061L87.7289 4.81818H89.986V15H88.2161V8.00497H88.1216L85.3077 14.9702H83.9853L81.1713 7.99006H81.0769V15H79.307V4.81818ZM91.9945 15V4.81818H95.8127C96.5949 4.81818 97.2511 4.96401 97.7814 5.25568C98.315 5.54735 98.7177 5.94839 98.9895 6.45881C99.2646 6.96591 99.4022 7.54261 99.4022 8.18892C99.4022 8.84186 99.2646 9.42187 98.9895 9.92898C98.7144 10.4361 98.3084 10.8355 97.7715 11.1271C97.2346 11.4155 96.5733 11.5597 95.7878 11.5597H93.2573V10.0433H95.5392C95.9966 10.0433 96.3712 9.96378 96.6628 9.80469C96.9545 9.6456 97.1699 9.42685 97.3091 9.14844C97.4516 8.87003 97.5229 8.55019 97.5229 8.18892C97.5229 7.82765 97.4516 7.50947 97.3091 7.23438C97.1699 6.95928 96.9528 6.7455 96.6578 6.59304C96.3662 6.43726 95.99 6.35938 95.5293 6.35938H93.839V15H91.9945Z" fill="#73D13D"/>
</svg>
