<svg width="21" height="20" viewBox="0 0 21 20" fill="none" xmlns="http://www.w3.org/2000/svg">
<path fill-rule="evenodd" clip-rule="evenodd" d="M10.5 3.33337C10.9602 3.33337 11.3333 3.70647 11.3333 4.16671V9.16671H16.3333C16.7936 9.16671 17.1667 9.5398 17.1667 10C17.1667 10.4603 16.7936 10.8334 16.3333 10.8334H11.3333V15.8334C11.3333 16.2936 10.9602 16.6667 10.5 16.6667C10.0398 16.6667 9.66666 16.2936 9.66666 15.8334V10.8334H4.66666C4.20642 10.8334 3.83333 10.4603 3.83333 10C3.83333 9.5398 4.20642 9.16671 4.66666 9.16671H9.66666V4.16671C9.66666 3.70647 10.0398 3.33337 10.5 3.33337Z" fill="white"/>
</svg>
