<svg width="20" height="20" viewBox="0 0 20 20" fill="none" xmlns="http://www.w3.org/2000/svg">
<g clip-path="url(#clip0_65_12)">
<path fill-rule="evenodd" clip-rule="evenodd" d="M10 2.49992C5.85787 2.49992 2.50001 5.85778 2.50001 9.99992C2.50001 14.1421 5.85787 17.4999 10 17.4999C14.1421 17.4999 17.5 14.1421 17.5 9.99992C17.5 5.85778 14.1421 2.49992 10 2.49992ZM0.833344 9.99992C0.833344 4.93731 4.9374 0.833252 10 0.833252C15.0626 0.833252 19.1667 4.93731 19.1667 9.99992C19.1667 15.0625 15.0626 19.1666 10 19.1666C4.9374 19.1666 0.833344 15.0625 0.833344 9.99992ZM9.16668 6.66658C9.16668 6.20635 9.53977 5.83325 10 5.83325H10.0083C10.4686 5.83325 10.8417 6.20635 10.8417 6.66658C10.8417 7.12682 10.4686 7.49992 10.0083 7.49992H10C9.53977 7.49992 9.16668 7.12682 9.16668 6.66658ZM10 9.16658C10.4602 9.16658 10.8333 9.53968 10.8333 9.99992V13.3333C10.8333 13.7935 10.4602 14.1666 10 14.1666C9.53977 14.1666 9.16668 13.7935 9.16668 13.3333V9.99992C9.16668 9.53968 9.53977 9.16658 10 9.16658Z" fill="white"/>
</g>
<defs>
<clipPath id="clip0_65_12">
<rect width="20" height="20" fill="white"/>
</clipPath>
</defs>
</svg>
