<svg width="20" height="20" viewBox="0 0 20 20" fill="none" xmlns="http://www.w3.org/2000/svg">
<path fill-rule="evenodd" clip-rule="evenodd" d="M5.33566 4.65715C5.33566 4.0654 5.81537 3.58569 6.40712 3.58569H13.5942C14.186 3.58569 14.6657 4.0654 14.6657 4.65715C14.6657 6.36597 13.9868 8.00481 12.7785 9.21313L12.0676 9.92407C12.0302 9.96143 12.0098 9.98187 11.9953 9.99719C11.9943 9.99823 11.9934 9.99919 11.9925 10.0001C11.9934 10.0009 11.9943 10.0019 11.9953 10.0029C12.0098 10.0183 12.0302 10.0387 12.0676 10.0761L12.7785 10.787C13.9868 11.9953 14.6657 13.6342 14.6657 15.343C14.6657 15.9347 14.186 16.4144 13.5942 16.4144H6.40712C5.81537 16.4144 5.33566 15.9347 5.33566 15.343C5.33566 13.6342 6.01449 11.9953 7.22281 10.787L7.93375 10.0761L8.34608 10.4884L7.93375 10.0761C7.97111 10.0387 7.99149 10.0183 8.00605 10.003C8.00705 10.0019 8.00795 10.0009 8.00878 10.0001C8.00795 9.99919 8.00705 9.99823 8.00605 9.99719C7.99149 9.98187 7.97111 9.96142 7.93375 9.92407L7.22281 9.21313C6.01449 8.00481 5.33566 6.36597 5.33566 4.65715ZM6.50276 4.75194C6.52726 6.11715 7.08023 7.42122 8.04747 8.38846L8.75841 9.0994C8.76343 9.10442 8.76858 9.10955 8.77385 9.1148C8.82749 9.16826 8.89293 9.23348 8.94475 9.303L8.4926 9.64009L8.94475 9.303C9.25308 9.71657 9.25308 10.2836 8.94475 10.6971L8.4926 10.36L8.94475 10.6971C8.89293 10.7667 8.82749 10.8319 8.77385 10.8853C8.76858 10.8906 8.76343 10.8957 8.75841 10.9007L8.04747 11.6117C7.08023 12.5789 6.52726 13.883 6.50276 15.2482H13.4986C13.4741 13.883 12.9211 12.5789 11.9539 11.6117L11.2429 10.9007C11.2379 10.8957 11.2327 10.8906 11.2275 10.8853C11.1738 10.8319 11.1084 10.7667 11.0566 10.6971C10.7482 10.2836 10.7482 9.71657 11.0566 9.303C11.1084 9.23348 11.1738 9.16826 11.2275 9.1148C11.2327 9.10955 11.2379 9.10442 11.2429 9.0994L11.9539 8.38846C12.9211 7.42122 13.4741 6.11715 13.4986 4.75194H6.50276Z" fill="white"/>
</svg>
