<svg width="45" height="22" viewBox="0 0 45 22" fill="none" xmlns="http://www.w3.org/2000/svg">
<rect x="1" y="0.5" width="43" height="21" rx="10.5" fill="url(#paint0_radial_90_3)"/>
<rect x="1" y="0.5" width="43" height="21" rx="10.5" stroke="white"/>
<path d="M12.621 14.401C12.9157 14.401 13.1757 14.2883 13.401 14.063C13.6177 13.8463 13.726 13.5863 13.726 13.283C13.726 12.9797 13.6177 12.7197 13.401 12.503C13.1843 12.2863 12.9243 12.178 12.621 12.178H10.814V14.401H12.621ZM10.814 10.735H11.893C12.1963 10.735 12.4607 10.6223 12.686 10.397C12.9027 10.1803 13.011 9.92033 13.011 9.617C13.011 9.305 12.9027 9.04067 12.686 8.824C12.4693 8.60733 12.205 8.499 11.893 8.499H10.814V10.735ZM14.077 11.099C14.5883 11.3243 14.9437 11.632 15.143 12.022C15.3423 12.438 15.442 12.8713 15.442 13.322C15.442 14.0587 15.182 14.687 14.662 15.207C14.142 15.7357 13.5137 16 12.777 16H9.215V6.9H12.049C12.7857 6.9 13.414 7.16 13.934 7.68C14.454 8.20867 14.714 8.837 14.714 9.565C14.714 10.137 14.5017 10.6483 14.077 11.099ZM21.4817 11.775C21.0917 10.943 20.4807 10.527 19.6487 10.527C18.8081 10.527 18.1971 10.943 17.8157 11.775H21.4817ZM23.2107 13.14H17.8157C18.1884 13.9807 18.7994 14.401 19.6487 14.401C20.1947 14.401 20.6541 14.2147 21.0267 13.842L22.1577 14.973C21.4731 15.6577 20.6367 16 19.6487 16C18.6607 16 17.8201 15.6533 17.1267 14.96C16.4334 14.2667 16.0867 13.4347 16.0867 12.464C16.0867 11.4847 16.4334 10.6483 17.1267 9.955C17.8201 9.26167 18.6607 8.915 19.6487 8.915C20.6367 8.915 21.4774 9.26167 22.1707 9.955C22.8641 10.6483 23.2107 11.4847 23.2107 12.464V13.14ZM27.2635 10.449H25.9245V13.322C25.9245 13.6167 26.0328 13.855 26.2495 14.037C26.4488 14.2277 26.7001 14.323 27.0035 14.323H27.2635V16H26.9255C26.2061 16 25.5908 15.7443 25.0795 15.233C24.5681 14.7217 24.3125 14.1063 24.3125 13.387V10.449H23.7925V8.837H24.3125V6.9H25.9245V8.837H27.2635V10.449ZM31.4312 14.401C31.9512 14.401 32.4019 14.2103 32.7832 13.829C33.1559 13.4563 33.3422 13.0013 33.3422 12.464C33.3422 11.918 33.1559 11.4587 32.7832 11.086C32.4105 10.7133 31.9599 10.527 31.4312 10.527C30.9025 10.527 30.4519 10.7133 30.0792 11.086C29.7065 11.4587 29.5202 11.918 29.5202 12.464C29.5202 13.0013 29.7065 13.4563 30.0792 13.829C30.4605 14.2103 30.9112 14.401 31.4312 14.401ZM34.9542 8.85V16H33.3422V15.038C32.7182 15.6793 31.9729 16 31.1062 16C30.2049 16 29.4335 15.6533 28.7922 14.96C28.1509 14.2667 27.8302 13.4347 27.8302 12.464C27.8302 11.4847 28.1465 10.6527 28.7792 9.968C29.4032 9.292 30.1789 8.941 31.1062 8.915C31.9729 8.915 32.7182 9.23567 33.3422 9.877V8.85H34.9542Z" fill="white"/>
<defs>
<radialGradient id="paint0_radial_90_3" cx="0" cy="0" r="1" gradientUnits="userSpaceOnUse" gradientTransform="translate(22.5 11) rotate(26.5651) scale(24.5967 19.6774)">
<stop stop-color="white" stop-opacity="0.37"/>
<stop offset="1" stop-color="white" stop-opacity="0"/>
</radialGradient>
</defs>
</svg>
