<svg width="80" height="60" viewBox="0 0 80 60" fill="none" xmlns="http://www.w3.org/2000/svg">
<mask id="path-1-inside-1_109_3" fill="white">
<path d="M0 0H80V60H0V0Z"/>
</mask>
<path d="M80 59H0V61H80V59Z" fill="white" fill-opacity="0.1" mask="url(#path-1-inside-1_109_3)"/>
<g filter="url(#filter0_i_109_3)">
<circle cx="40.0013" cy="17.6136" r="13.0345" fill="url(#paint0_linear_109_3)"/>
<circle cx="40.0013" cy="17.6136" r="13.0345" fill="url(#paint1_linear_109_3)"/>
</g>
<circle cx="40.0369" cy="19.0984" r="10.5603" fill="url(#paint2_linear_109_3)"/>
<rect x="34.8828" y="13.1411" width="2.30161" height="5.41556" rx="1.15081" fill="url(#paint3_linear_109_3)"/>
<rect x="42.7363" y="13.1411" width="2.30161" height="5.41556" rx="1.15081" fill="url(#paint4_linear_109_3)"/>
<path d="M18.536 49.3707C18.536 51.8611 16.6367 53.2587 13.9313 53.2587C12.032 53.2587 10.1149 52.5957 8.60986 51.252L10.2403 49.299C11.3691 50.2307 12.5516 50.8219 13.985 50.8219C15.1138 50.8219 15.7946 50.374 15.7946 49.6394V49.6036C15.7946 48.9048 15.3646 48.5465 13.2683 48.009C10.742 47.3639 9.11154 46.6652 9.11154 44.1747V44.1389C9.11154 41.8634 10.9391 40.3583 13.5012 40.3583C15.3288 40.3583 16.8876 40.9317 18.1597 41.953L16.7263 44.0314C15.6155 43.2609 14.5225 42.7951 13.4654 42.7951C12.4083 42.7951 11.8529 43.2788 11.8529 43.888V43.9239C11.8529 44.748 12.3904 45.0168 14.5584 45.5722C17.1026 46.2352 18.536 47.1489 18.536 49.3348V49.3707Z" fill="url(#paint5_linear_109_3)"/>
<path d="M18.536 49.3707C18.536 51.8611 16.6367 53.2587 13.9313 53.2587C12.032 53.2587 10.1149 52.5957 8.60986 51.252L10.2403 49.299C11.3691 50.2307 12.5516 50.8219 13.985 50.8219C15.1138 50.8219 15.7946 50.374 15.7946 49.6394V49.6036C15.7946 48.9048 15.3646 48.5465 13.2683 48.009C10.742 47.3639 9.11154 46.6652 9.11154 44.1747V44.1389C9.11154 41.8634 10.9391 40.3583 13.5012 40.3583C15.3288 40.3583 16.8876 40.9317 18.1597 41.953L16.7263 44.0314C15.6155 43.2609 14.5225 42.7951 13.4654 42.7951C12.4083 42.7951 11.8529 43.2788 11.8529 43.888V43.9239C11.8529 44.748 12.3904 45.0168 14.5584 45.5722C17.1026 46.2352 18.536 47.1489 18.536 49.3348V49.3707Z" fill="white"/>
<path d="M30.57 48.2956C30.57 51.0549 28.3482 53.2945 25.3561 53.2945C22.3818 53.2945 20.178 51.0907 20.178 48.3315V48.2956C20.178 45.5364 22.3998 43.2968 25.3919 43.2968C28.3662 43.2968 30.57 45.5006 30.57 48.2598V48.2956ZM27.8824 48.3315V48.2956C27.8824 46.8802 26.8611 45.6439 25.3561 45.6439C23.7973 45.6439 22.8656 46.8443 22.8656 48.2598V48.2956C22.8656 49.7111 23.8869 50.9474 25.3919 50.9474C26.9507 50.9474 27.8824 49.7469 27.8824 48.3315Z" fill="url(#paint6_linear_109_3)"/>
<path d="M30.57 48.2956C30.57 51.0549 28.3482 53.2945 25.3561 53.2945C22.3818 53.2945 20.178 51.0907 20.178 48.3315V48.2956C20.178 45.5364 22.3998 43.2968 25.3919 43.2968C28.3662 43.2968 30.57 45.5006 30.57 48.2598V48.2956ZM27.8824 48.3315V48.2956C27.8824 46.8802 26.8611 45.6439 25.3561 45.6439C23.7973 45.6439 22.8656 46.8443 22.8656 48.2598V48.2956C22.8656 49.7111 23.8869 50.9474 25.3919 50.9474C26.9507 50.9474 27.8824 49.7469 27.8824 48.3315Z" fill="white"/>
<path d="M35.3908 53.0795H32.6674V40H35.3908V53.0795Z" fill="url(#paint7_linear_109_3)"/>
<path d="M35.3908 53.0795H32.6674V40H35.3908V53.0795Z" fill="white"/>
<path d="M47.0863 43.4759L43.3954 53.3124C42.6608 55.2654 41.8725 56 40.242 56C39.2566 56 38.522 55.7492 37.8232 55.3371L38.737 53.3662C39.0953 53.5812 39.5432 53.7424 39.9016 53.7424C40.3674 53.7424 40.6183 53.5991 40.8512 53.1153L37.0886 43.4759H39.9732L42.1591 50.0157L44.2554 43.4759H47.0863Z" fill="url(#paint8_linear_109_3)"/>
<path d="M47.0863 43.4759L43.3954 53.3124C42.6608 55.2654 41.8725 56 40.242 56C39.2566 56 38.522 55.7492 37.8232 55.3371L38.737 53.3662C39.0953 53.5812 39.5432 53.7424 39.9016 53.7424C40.3674 53.7424 40.6183 53.5991 40.8512 53.1153L37.0886 43.4759H39.9732L42.1591 50.0157L44.2554 43.4759H47.0863Z" fill="white"/>
<path d="M66.5697 53.0795H63.685L62.5383 50.2665H57.2349L56.0882 53.0795H53.2752L58.6503 40.4479H61.1945L66.5697 53.0795ZM61.5529 47.8298L59.8866 43.7626L58.2203 47.8298H61.5529Z" fill="url(#paint9_linear_109_3)"/>
<path d="M66.5697 53.0795H63.685L62.5383 50.2665H57.2349L56.0882 53.0795H53.2752L58.6503 40.4479H61.1945L66.5697 53.0795ZM61.5529 47.8298L59.8866 43.7626L58.2203 47.8298H61.5529Z" fill="white"/>
<path d="M71.3901 53.0795H68.6309V40.5375H71.3901V53.0795Z" fill="url(#paint10_linear_109_3)"/>
<path d="M71.3901 53.0795H68.6309V40.5375H71.3901V53.0795Z" fill="white"/>
<defs>
<filter id="filter0_i_109_3" x="26.9668" y="4.5791" width="26.1436" height="26.9648" filterUnits="userSpaceOnUse" color-interpolation-filters="sRGB">
<feFlood flood-opacity="0" result="BackgroundImageFix"/>
<feBlend mode="normal" in="SourceGraphic" in2="BackgroundImageFix" result="shape"/>
<feColorMatrix in="SourceAlpha" type="matrix" values="0 0 0 0 0 0 0 0 0 0 0 0 0 0 0 0 0 0 127 0" result="hardAlpha"/>
<feOffset dx="0.0746667" dy="0.896"/>
<feGaussianBlur stdDeviation="1.55"/>
<feComposite in2="hardAlpha" operator="arithmetic" k2="-1" k3="1"/>
<feColorMatrix type="matrix" values="0 0 0 0 0 0 0 0 0 0 0 0 0 0 0 0 0 0 0.5 0"/>
<feBlend mode="normal" in2="shape" result="effect1_innerShadow_109_3"/>
</filter>
<linearGradient id="paint0_linear_109_3" x1="40.0013" y1="4.5791" x2="40.0013" y2="30.6481" gradientUnits="userSpaceOnUse">
<stop stop-color="#130C14"/>
<stop offset="1" stop-color="#74497A"/>
</linearGradient>
<linearGradient id="paint1_linear_109_3" x1="40.0013" y1="4.5791" x2="40.0013" y2="30.6481" gradientUnits="userSpaceOnUse">
<stop stop-color="white"/>
<stop offset="1" stop-color="#EDEDED"/>
</linearGradient>
<linearGradient id="paint2_linear_109_3" x1="40.0369" y1="8.53809" x2="40.0369" y2="29.6588" gradientUnits="userSpaceOnUse">
<stop stop-color="#130C14"/>
<stop offset="1"/>
</linearGradient>
<linearGradient id="paint3_linear_109_3" x1="36.0336" y1="13.1411" x2="36.0336" y2="18.5567" gradientUnits="userSpaceOnUse">
<stop stop-color="white"/>
<stop offset="1" stop-color="#DADADA"/>
</linearGradient>
<linearGradient id="paint4_linear_109_3" x1="43.8871" y1="13.1411" x2="43.8871" y2="18.5567" gradientUnits="userSpaceOnUse">
<stop stop-color="white"/>
<stop offset="1" stop-color="#DADADA"/>
</linearGradient>
<linearGradient id="paint5_linear_109_3" x1="7.84559" y1="46.3713" x2="28.1009" y2="16.0337" gradientUnits="userSpaceOnUse">
<stop offset="0.08" stop-color="#9945FF"/>
<stop offset="0.3" stop-color="#8752F3"/>
<stop offset="0.5" stop-color="#5497D5"/>
<stop offset="0.6" stop-color="#43B4CA"/>
<stop offset="0.72" stop-color="#28E0B9"/>
<stop offset="1" stop-color="#19FB9B"/>
</linearGradient>
<linearGradient id="paint6_linear_109_3" x1="7.84559" y1="46.3713" x2="28.1009" y2="16.0337" gradientUnits="userSpaceOnUse">
<stop offset="0.08" stop-color="#9945FF"/>
<stop offset="0.3" stop-color="#8752F3"/>
<stop offset="0.5" stop-color="#5497D5"/>
<stop offset="0.6" stop-color="#43B4CA"/>
<stop offset="0.72" stop-color="#28E0B9"/>
<stop offset="1" stop-color="#19FB9B"/>
</linearGradient>
<linearGradient id="paint7_linear_109_3" x1="7.84559" y1="46.3713" x2="28.1009" y2="16.0337" gradientUnits="userSpaceOnUse">
<stop offset="0.08" stop-color="#9945FF"/>
<stop offset="0.3" stop-color="#8752F3"/>
<stop offset="0.5" stop-color="#5497D5"/>
<stop offset="0.6" stop-color="#43B4CA"/>
<stop offset="0.72" stop-color="#28E0B9"/>
<stop offset="1" stop-color="#19FB9B"/>
</linearGradient>
<linearGradient id="paint8_linear_109_3" x1="7.84559" y1="46.3713" x2="28.1009" y2="16.0337" gradientUnits="userSpaceOnUse">
<stop offset="0.08" stop-color="#9945FF"/>
<stop offset="0.3" stop-color="#8752F3"/>
<stop offset="0.5" stop-color="#5497D5"/>
<stop offset="0.6" stop-color="#43B4CA"/>
<stop offset="0.72" stop-color="#28E0B9"/>
<stop offset="1" stop-color="#19FB9B"/>
</linearGradient>
<linearGradient id="paint9_linear_109_3" x1="7.84559" y1="46.3713" x2="28.1009" y2="16.0337" gradientUnits="userSpaceOnUse">
<stop offset="0.08" stop-color="#9945FF"/>
<stop offset="0.3" stop-color="#8752F3"/>
<stop offset="0.5" stop-color="#5497D5"/>
<stop offset="0.6" stop-color="#43B4CA"/>
<stop offset="0.72" stop-color="#28E0B9"/>
<stop offset="1" stop-color="#19FB9B"/>
</linearGradient>
<linearGradient id="paint10_linear_109_3" x1="7.84559" y1="46.3713" x2="28.1009" y2="16.0337" gradientUnits="userSpaceOnUse">
<stop offset="0.08" stop-color="#9945FF"/>
<stop offset="0.3" stop-color="#8752F3"/>
<stop offset="0.5" stop-color="#5497D5"/>
<stop offset="0.6" stop-color="#43B4CA"/>
<stop offset="0.72" stop-color="#28E0B9"/>
<stop offset="1" stop-color="#19FB9B"/>
</linearGradient>
</defs>
</svg>
