<svg width="28" height="28" viewBox="0 0 28 28" fill="none" xmlns="http://www.w3.org/2000/svg">
<path d="M20.2343 4.66675H4.69648C4.06939 4.66675 3.46798 4.90404 3.02456 5.32626C2.58114 5.74857 2.33203 6.32135 2.33203 6.91863V20.1482C2.33203 20.7455 2.58114 21.3183 3.02456 21.7406C3.46798 22.1628 4.06939 22.4001 4.69648 22.4001H20.2343C20.8613 22.4001 21.4628 22.1628 21.9062 21.7406C22.3496 21.3183 22.5987 20.7455 22.5987 20.1482V6.91863C22.5987 6.32135 22.3496 5.74857 21.9062 5.32626C21.4628 4.90404 20.8613 4.66675 20.2343 4.66675Z" fill="url(#paint0_linear_77_4)" fill-opacity="0.3" stroke="white" stroke-width="0.844445" stroke-linecap="round" stroke-linejoin="round"/>
<path fill-rule="evenodd" clip-rule="evenodd" d="M19.2201 10.5779C18.2874 10.5779 17.5312 11.334 17.5312 12.2668V14.8001C17.5312 15.7329 18.2874 16.489 19.2201 16.489H24.2868C25.2196 16.489 25.9757 15.7329 25.9757 14.8001V12.2668C25.9757 11.334 25.2196 10.5779 24.2868 10.5779H19.2201ZM20.0632 14.3779C20.5296 14.3779 20.9076 13.9998 20.9076 13.5334C20.9076 13.067 20.5296 12.689 20.0632 12.689C19.5968 12.689 19.2188 13.067 19.2188 13.5334C19.2188 13.9998 19.5968 14.3779 20.0632 14.3779Z" fill="white"/>
<defs>
<linearGradient id="paint0_linear_77_4" x1="14.1543" y1="4.66675" x2="14.1543" y2="24.9334" gradientUnits="userSpaceOnUse">
<stop stop-color="white" stop-opacity="0.26"/>
<stop offset="1" stop-color="white"/>
</linearGradient>
</defs>
</svg>
