<svg width="69" height="20" viewBox="0 0 69 20" fill="none" xmlns="http://www.w3.org/2000/svg">
<path fill-rule="evenodd" clip-rule="evenodd" d="M8.93212 2.72192C9.2036 2.83976 9.36488 3.12248 9.32817 3.41614L8.75518 8.00012L12.8852 8.00012C13.0458 8.00009 13.2086 8.00006 13.3415 8.01209C13.4673 8.02348 13.708 8.05359 13.9168 8.22233C14.1559 8.41551 14.2928 8.70788 14.2882 9.0152C14.2841 9.28363 14.1531 9.48788 14.0814 9.59177C14.0055 9.7016 13.9013 9.82659 13.7985 9.94999L7.84547 17.0936C7.65601 17.3209 7.33934 17.3962 7.06786 17.2783C6.79638 17.1605 6.6351 16.8778 6.6718 16.5841L7.2448 12.0001L3.11481 12.0001C2.95415 12.0002 2.79142 12.0002 2.65847 11.9881C2.53273 11.9768 2.29195 11.9466 2.08314 11.7779C1.84409 11.5847 1.70715 11.2924 1.71178 10.985C1.71583 10.7166 1.84684 10.5124 1.91859 10.4085C1.99446 10.2986 2.09866 10.1736 2.20154 10.0502C2.20664 10.0441 2.21173 10.038 2.21681 10.0319L8.15451 2.90666C8.34397 2.67931 8.66064 2.60407 8.93212 2.72192ZM3.42335 10.6668H7.99999C8.19121 10.6668 8.37322 10.7489 8.49978 10.8923C8.62633 11.0356 8.68523 11.2264 8.66151 11.4161L8.27688 14.4931L12.5766 9.33345H7.99999C7.80877 9.33345 7.62675 9.25134 7.5002 9.10799C7.37365 8.96463 7.31475 8.77384 7.33847 8.5841L7.7231 5.50709L3.42335 10.6668Z" fill="#9254DE"/>
<path fill-rule="evenodd" clip-rule="evenodd" d="M8.93212 2.72192C9.2036 2.83976 9.36488 3.12248 9.32817 3.41614L8.75518 8.00012L12.8852 8.00012C13.0458 8.00009 13.2086 8.00006 13.3415 8.01209C13.4673 8.02348 13.708 8.05359 13.9168 8.22233C14.1559 8.41551 14.2928 8.70788 14.2882 9.0152C14.2841 9.28363 14.1531 9.48788 14.0814 9.59177C14.0055 9.7016 13.9013 9.82659 13.7985 9.94999L7.84547 17.0936C7.65601 17.3209 7.33934 17.3962 7.06786 17.2783C6.79638 17.1605 6.6351 16.8778 6.6718 16.5841L7.2448 12.0001L3.11481 12.0001C2.95415 12.0002 2.79142 12.0002 2.65847 11.9881C2.53273 11.9768 2.29195 11.9466 2.08314 11.7779C1.84409 11.5847 1.70715 11.2924 1.71178 10.985C1.71583 10.7166 1.84684 10.5124 1.91859 10.4085C1.99446 10.2986 2.09866 10.1736 2.20154 10.0502C2.20664 10.0441 2.21173 10.038 2.21681 10.0319L8.15451 2.90666C8.34397 2.67931 8.66064 2.60407 8.93212 2.72192ZM3.42335 10.6668H7.99999C8.19121 10.6668 8.37322 10.7489 8.49978 10.8923C8.62633 11.0356 8.68523 11.2264 8.66151 11.4161L8.27688 14.4931L12.5766 9.33345H7.99999C7.80877 9.33345 7.62675 9.25134 7.5002 9.10799C7.37365 8.96463 7.31475 8.77384 7.33847 8.5841L7.7231 5.50709L3.42335 10.6668Z" fill="url(#paint0_linear_107_10)"/>
<path d="M25.3569 15H21.9066V4.81818H25.4265C26.4374 4.81818 27.3058 5.02202 28.0316 5.42969C28.7608 5.83404 29.3209 6.41572 29.712 7.17472C30.1031 7.93371 30.2987 8.84186 30.2987 9.89915C30.2987 10.9598 30.1014 11.8712 29.707 12.6335C29.3159 13.3958 28.7508 13.9808 28.0117 14.3885C27.2759 14.7962 26.391 15 25.3569 15ZM23.7511 13.4041H25.2674C25.9767 13.4041 26.5683 13.2749 27.0423 13.0163C27.5162 12.7545 27.8725 12.3651 28.1112 11.848C28.3498 11.3277 28.4691 10.678 28.4691 9.89915C28.4691 9.12026 28.3498 8.47396 28.1112 7.96023C27.8725 7.44318 27.5195 7.05706 27.0522 6.80185C26.5882 6.54332 26.0115 6.41406 25.3221 6.41406H23.7511V13.4041ZM32.0511 15V4.81818H38.6733V6.36435H33.8956V9.12855H38.3303V10.6747H33.8956V13.4538H38.7131V15H32.0511ZM47.3761 8.0696C47.2932 7.80114 47.1789 7.56084 47.033 7.34872C46.8905 7.13329 46.7182 6.94934 46.516 6.79688C46.3171 6.64441 46.0884 6.53007 45.8299 6.45383C45.5714 6.37429 45.2897 6.33452 44.9847 6.33452C44.4379 6.33452 43.9506 6.47206 43.5231 6.74716C43.0955 7.02225 42.7591 7.42661 42.5138 7.96023C42.2719 8.49053 42.1509 9.13684 42.1509 9.89915C42.1509 10.6681 42.2719 11.3194 42.5138 11.853C42.7558 12.3866 43.0922 12.7926 43.5231 13.071C43.954 13.3461 44.4544 13.4837 45.0245 13.4837C45.5415 13.4837 45.989 13.3842 46.3668 13.1854C46.748 12.9865 47.0413 12.7048 47.2468 12.3402C47.4523 11.9723 47.555 11.5414 47.555 11.0476L47.9727 11.1122H45.2085V9.67045H49.3398V10.8935C49.3398 11.7652 49.1542 12.5192 48.783 13.1555C48.4118 13.7919 47.9014 14.2824 47.2518 14.6271C46.6022 14.9685 45.8564 15.1392 45.0146 15.1392C44.0766 15.1392 43.253 14.9287 42.5437 14.5078C41.8377 14.0836 41.2859 13.482 40.8881 12.7031C40.4937 11.9209 40.2965 10.9929 40.2965 9.91903C40.2965 9.09706 40.4125 8.36293 40.6445 7.71662C40.8799 7.07031 41.208 6.52178 41.6289 6.07102C42.0498 5.61695 42.5437 5.27225 43.1104 5.03693C43.6772 4.7983 44.2937 4.67898 44.9599 4.67898C45.5233 4.67898 46.0487 4.76184 46.5359 4.92756C47.0231 5.08996 47.4556 5.32197 47.8335 5.62358C48.2146 5.92519 48.5278 6.28314 48.7731 6.69744C49.0183 7.11174 49.1791 7.56913 49.2553 8.0696H47.3761ZM51.1234 15V4.81818H57.7456V6.36435H52.9679V9.12855H57.4025V10.6747H52.9679V13.4538H57.7853V15H51.1234ZM67.9945 4.81818V15H66.3539L61.5563 8.06463H61.4718V15H59.6273V4.81818H61.2779L66.0705 11.7585H66.16V4.81818H67.9945Z" fill="#9254DE"/>
<path d="M25.3569 15H21.9066V4.81818H25.4265C26.4374 4.81818 27.3058 5.02202 28.0316 5.42969C28.7608 5.83404 29.3209 6.41572 29.712 7.17472C30.1031 7.93371 30.2987 8.84186 30.2987 9.89915C30.2987 10.9598 30.1014 11.8712 29.707 12.6335C29.3159 13.3958 28.7508 13.9808 28.0117 14.3885C27.2759 14.7962 26.391 15 25.3569 15ZM23.7511 13.4041H25.2674C25.9767 13.4041 26.5683 13.2749 27.0423 13.0163C27.5162 12.7545 27.8725 12.3651 28.1112 11.848C28.3498 11.3277 28.4691 10.678 28.4691 9.89915C28.4691 9.12026 28.3498 8.47396 28.1112 7.96023C27.8725 7.44318 27.5195 7.05706 27.0522 6.80185C26.5882 6.54332 26.0115 6.41406 25.3221 6.41406H23.7511V13.4041ZM32.0511 15V4.81818H38.6733V6.36435H33.8956V9.12855H38.3303V10.6747H33.8956V13.4538H38.7131V15H32.0511ZM47.3761 8.0696C47.2932 7.80114 47.1789 7.56084 47.033 7.34872C46.8905 7.13329 46.7182 6.94934 46.516 6.79688C46.3171 6.64441 46.0884 6.53007 45.8299 6.45383C45.5714 6.37429 45.2897 6.33452 44.9847 6.33452C44.4379 6.33452 43.9506 6.47206 43.5231 6.74716C43.0955 7.02225 42.7591 7.42661 42.5138 7.96023C42.2719 8.49053 42.1509 9.13684 42.1509 9.89915C42.1509 10.6681 42.2719 11.3194 42.5138 11.853C42.7558 12.3866 43.0922 12.7926 43.5231 13.071C43.954 13.3461 44.4544 13.4837 45.0245 13.4837C45.5415 13.4837 45.989 13.3842 46.3668 13.1854C46.748 12.9865 47.0413 12.7048 47.2468 12.3402C47.4523 11.9723 47.555 11.5414 47.555 11.0476L47.9727 11.1122H45.2085V9.67045H49.3398V10.8935C49.3398 11.7652 49.1542 12.5192 48.783 13.1555C48.4118 13.7919 47.9014 14.2824 47.2518 14.6271C46.6022 14.9685 45.8564 15.1392 45.0146 15.1392C44.0766 15.1392 43.253 14.9287 42.5437 14.5078C41.8377 14.0836 41.2859 13.482 40.8881 12.7031C40.4937 11.9209 40.2965 10.9929 40.2965 9.91903C40.2965 9.09706 40.4125 8.36293 40.6445 7.71662C40.8799 7.07031 41.208 6.52178 41.6289 6.07102C42.0498 5.61695 42.5437 5.27225 43.1104 5.03693C43.6772 4.7983 44.2937 4.67898 44.9599 4.67898C45.5233 4.67898 46.0487 4.76184 46.5359 4.92756C47.0231 5.08996 47.4556 5.32197 47.8335 5.62358C48.2146 5.92519 48.5278 6.28314 48.7731 6.69744C49.0183 7.11174 49.1791 7.56913 49.2553 8.0696H47.3761ZM51.1234 15V4.81818H57.7456V6.36435H52.9679V9.12855H57.4025V10.6747H52.9679V13.4538H57.7853V15H51.1234ZM67.9945 4.81818V15H66.3539L61.5563 8.06463H61.4718V15H59.6273V4.81818H61.2779L66.0705 11.7585H66.16V4.81818H67.9945Z" fill="url(#paint1_linear_107_10)"/>
<defs>
<linearGradient id="paint0_linear_107_10" x1="1.71167" y1="1.00871" x2="14.3873" y2="1.08598" gradientUnits="userSpaceOnUse">
<stop stop-color="#F7E494"/>
<stop offset="0.272382" stop-color="#FFFEB4"/>
<stop offset="0.543099" stop-color="#E0B351"/>
<stop offset="0.801065" stop-color="#EACB6F"/>
<stop offset="1" stop-color="#9D6C28"/>
</linearGradient>
<linearGradient id="paint1_linear_107_10" x1="20" y1="-2.26095" x2="69.3727" y2="-1.40107" gradientUnits="userSpaceOnUse">
<stop stop-color="#F7E494"/>
<stop offset="0.272382" stop-color="#FFFEB4"/>
<stop offset="0.543099" stop-color="#E0B351"/>
<stop offset="0.801065" stop-color="#EACB6F"/>
<stop offset="1" stop-color="#9D6C28"/>
</linearGradient>
</defs>
</svg>
