<svg width="20" height="20" viewBox="0 0 20 20" fill="none" xmlns="http://www.w3.org/2000/svg">
<path fill-rule="evenodd" clip-rule="evenodd" d="M10 1.66667C10.4602 1.66667 10.8333 2.03976 10.8333 2.5V12.1548L14.4107 8.57741C14.7362 8.25197 15.2638 8.25197 15.5893 8.57741C15.9147 8.90285 15.9147 9.43049 15.5893 9.75592L10.5893 14.7559C10.2638 15.0814 9.73618 15.0814 9.41075 14.7559L4.41075 9.75592C4.08531 9.43049 4.08531 8.90285 4.41075 8.57741C4.73618 8.25197 5.26382 8.25197 5.58926 8.57741L9.16667 12.1548V2.5C9.16667 2.03976 9.53976 1.66667 10 1.66667ZM1.66667 17.5C1.66667 17.0398 2.03976 16.6667 2.5 16.6667H17.5C17.9602 16.6667 18.3333 17.0398 18.3333 17.5C18.3333 17.9602 17.9602 18.3333 17.5 18.3333H2.5C2.03976 18.3333 1.66667 17.9602 1.66667 17.5Z" fill="#131313"/>
</svg>
