<svg width="20" height="20" viewBox="0 0 20 20" fill="none" xmlns="http://www.w3.org/2000/svg">
<g clip-path="url(#clip0_81_11)">
<path fill-rule="evenodd" clip-rule="evenodd" d="M9.3012 0.833497H15.6988C16.1381 0.833482 16.517 0.833469 16.8292 0.858972C17.1586 0.88589 17.4863 0.945319 17.8016 1.10598C18.272 1.34567 18.6545 1.72812 18.8942 2.19852C19.0548 2.51384 19.1143 2.84152 19.1412 3.17097C19.1667 3.48311 19.1667 3.86208 19.1666 4.30136V10.699C19.1667 11.1383 19.1667 11.5172 19.1412 11.8294C19.1143 12.1588 19.0548 12.4865 18.8942 12.8018C18.6545 13.2722 18.272 13.6547 17.8016 13.8943C17.4863 14.055 17.1586 14.1144 16.8292 14.1414C16.517 14.1669 16.138 14.1668 15.6988 14.1668H14.1666V15.6989C14.1667 16.1382 14.1667 16.5172 14.1412 16.8294C14.1143 17.1588 14.0548 17.4865 13.8942 17.8018C13.6545 18.2722 13.272 18.6547 12.8016 18.8943C12.4863 19.055 12.1586 19.1144 11.8292 19.1414C11.517 19.1669 11.1381 19.1668 10.6988 19.1668H4.30118C3.86189 19.1668 3.48293 19.1669 3.17079 19.1414C2.84134 19.1144 2.51365 19.055 2.19834 18.8943C1.72793 18.6547 1.34548 18.2722 1.1058 17.8018C0.945136 17.4865 0.885706 17.1588 0.858789 16.8294C0.833286 16.5172 0.833299 16.1382 0.833314 15.699V9.30138C0.833299 8.86209 0.833286 8.48312 0.858789 8.17097C0.885707 7.84152 0.945136 7.51384 1.1058 7.19852C1.34548 6.72812 1.72793 6.34567 2.19834 6.10598C2.51365 5.94532 2.84134 5.88589 3.17079 5.85897C3.48293 5.83347 3.8619 5.83348 4.30119 5.8335L5.83331 5.8335L5.83331 4.30138C5.8333 3.86209 5.83329 3.48312 5.85879 3.17097C5.88571 2.84152 5.94514 2.51384 6.1058 2.19852C6.34548 1.72812 6.72793 1.34566 7.19834 1.10598C7.51365 0.94532 7.84134 0.88589 8.17079 0.858972C8.48293 0.833469 8.8619 0.833482 9.3012 0.833497ZM4.33331 7.50016C3.85285 7.50016 3.54263 7.50081 3.30651 7.5201C3.08013 7.5386 2.99619 7.57 2.95499 7.59099C2.79819 7.67089 2.6707 7.79837 2.59081 7.95517C2.56982 7.99638 2.53842 8.08031 2.51992 8.30669C2.50063 8.54281 2.49998 8.85304 2.49998 9.3335V15.6668C2.49998 16.1473 2.50063 16.4575 2.51992 16.6936C2.53842 16.92 2.56982 17.004 2.59081 17.0452C2.6707 17.202 2.79819 17.3294 2.95499 17.4093C2.99619 17.4303 3.08013 17.4617 3.30651 17.4802C3.54263 17.4995 3.85285 17.5002 4.33331 17.5002H10.6666C11.1471 17.5002 11.4573 17.4995 11.6935 17.4802C11.9198 17.4617 12.0038 17.4303 12.045 17.4093C12.2018 17.3294 12.3293 17.202 12.4092 17.0452C12.4301 17.004 12.4615 16.92 12.48 16.6936C12.4993 16.4575 12.5 16.1473 12.5 15.6668V9.3335C12.5 8.85304 12.4993 8.54281 12.48 8.30669C12.4615 8.08031 12.4301 7.99638 12.4092 7.95517C12.3293 7.79837 12.2018 7.67089 12.045 7.59099C12.0038 7.57 11.9198 7.5386 11.6935 7.5201C11.4573 7.50081 11.1471 7.50016 10.6666 7.50016H4.33331ZM14.1666 12.5002V9.3014C14.1667 8.8621 14.1667 8.48312 14.1412 8.17097C14.1143 7.84152 14.0548 7.51384 13.8942 7.19852C13.6545 6.72812 13.272 6.34567 12.8016 6.10598C12.4863 5.94532 12.1586 5.88589 11.8292 5.85897C11.517 5.83347 11.1381 5.83348 10.6988 5.8335L7.49998 5.8335V4.3335C7.49998 3.85304 7.50063 3.54281 7.51992 3.30669C7.53842 3.08031 7.56982 2.99638 7.59081 2.95517C7.6707 2.79837 7.79819 2.67089 7.95499 2.59099C7.99619 2.57 8.08013 2.5386 8.30651 2.5201C8.54263 2.50081 8.85285 2.50016 9.33331 2.50016H15.6666C16.1471 2.50016 16.4573 2.50081 16.6935 2.5201C16.9198 2.5386 17.0038 2.57 17.045 2.59099C17.2018 2.67089 17.3293 2.79837 17.4092 2.95517C17.4301 2.99638 17.4615 3.08031 17.48 3.30669C17.4993 3.54281 17.5 3.85304 17.5 4.3335V10.6668C17.5 11.1473 17.4993 11.4575 17.48 11.6936C17.4615 11.92 17.4301 12.004 17.4092 12.0452C17.3293 12.202 17.2018 12.3294 17.045 12.4093C17.0038 12.4303 16.9198 12.4617 16.6935 12.4802C16.4573 12.4995 16.1471 12.5002 15.6666 12.5002H14.1666Z" fill="#979797"/>
</g>
<defs>
<clipPath id="clip0_81_11">
<rect width="20" height="20" fill="white"/>
</clipPath>
</defs>
</svg>
