<svg width="20" height="20" viewBox="0 0 20 20" fill="none" xmlns="http://www.w3.org/2000/svg">
<path fill-rule="evenodd" clip-rule="evenodd" d="M2.55108 4.16673C2.55692 4.17205 2.56325 4.17767 2.57012 4.18357C2.69817 4.29366 2.93221 4.43056 3.29388 4.56208C4.01036 4.82262 5.05539 5.00006 6.25 5.00006C7.44461 5.00006 8.48964 4.82262 9.20612 4.56208C9.56779 4.43056 9.80183 4.29366 9.92988 4.18357C9.93674 4.17767 9.94308 4.17205 9.94892 4.16673C9.94308 4.1614 9.93674 4.15579 9.92988 4.14989C9.80183 4.0398 9.56779 3.90289 9.20612 3.77138C8.48964 3.51084 7.44461 3.33339 6.25 3.33339C5.05539 3.33339 4.01036 3.51084 3.29388 3.77138C2.93221 3.90289 2.69817 4.0398 2.57012 4.14989C2.56325 4.15579 2.55692 4.1614 2.55108 4.16673ZM10 6.0417C9.92623 6.072 9.85136 6.10088 9.77569 6.1284C8.83333 6.47108 7.58669 6.66673 6.25 6.66673C4.9133 6.66673 3.66667 6.47108 2.72431 6.1284C2.64864 6.10088 2.57377 6.072 2.5 6.0417V7.86405C2.51218 7.87905 2.53374 7.90229 2.57012 7.93357C2.69817 8.04366 2.93221 8.18056 3.29388 8.31208C4.01036 8.57262 5.05539 8.75006 6.25 8.75006C7.44461 8.75006 8.48964 8.57262 9.20612 8.31208C9.56779 8.18056 9.80183 8.04366 9.92988 7.93357C9.96626 7.90229 9.98782 7.87906 10 7.86405V6.0417ZM10 9.7917C9.92623 9.822 9.85136 9.85088 9.77569 9.8784C8.83333 10.2211 7.58669 10.4167 6.25 10.4167C4.9133 10.4167 3.66667 10.2211 2.72431 9.8784C2.64864 9.85088 2.57377 9.822 2.5 9.7917V11.614C2.51218 11.6291 2.53374 11.6523 2.57012 11.6836C2.69817 11.7937 2.93221 11.9306 3.29388 12.0621C4.01036 12.3226 5.05539 12.5001 6.25 12.5001C7.10605 12.5001 7.89159 12.4088 8.53622 12.2581C9.09486 12.1274 9.50245 11.9626 9.75779 11.8063C9.83229 11.6674 9.91315 11.5325 10 11.4019V9.7917ZM11.6667 9.83564V4.16673C11.6667 3.60236 11.3495 3.17246 11.0164 2.88608C10.6806 2.59738 10.2434 2.37515 9.77569 2.20506C8.83333 1.86238 7.58669 1.66673 6.25 1.66673C4.9133 1.66673 3.66667 1.86238 2.72431 2.20506C2.25655 2.37515 1.81938 2.59738 1.48358 2.88608C1.15047 3.17246 0.833332 3.60236 0.833332 4.16673V15.4167C0.833332 15.9811 1.15047 16.411 1.48358 16.6974C1.81938 16.9861 2.25655 17.2083 2.72431 17.3784C3.66667 17.7211 4.9133 17.9167 6.25 17.9167C7.25179 17.9167 8.19633 17.8069 8.99824 17.6112C9.42345 17.5075 9.8323 17.3739 10.1963 17.2063C11.1102 18.3982 12.5487 19.1667 14.1667 19.1667C16.9281 19.1667 19.1667 16.9282 19.1667 14.1667C19.1667 11.4053 16.9281 9.16673 14.1667 9.16673C13.2559 9.16673 12.4021 9.41021 11.6667 9.83564ZM9.1683 14.2958C9.18095 14.7953 9.26688 15.2767 9.41573 15.7295C9.19996 15.8217 8.92958 15.9124 8.60314 15.9921C7.94673 16.1523 7.13641 16.2501 6.25 16.2501C5.05539 16.2501 4.01036 16.0726 3.29388 15.8121C2.93221 15.6806 2.69817 15.5437 2.57012 15.4336C2.53374 15.4023 2.51218 15.3791 2.5 15.364V13.5417C2.57377 13.572 2.64864 13.6009 2.72431 13.6284C3.66667 13.9711 4.9133 14.1667 6.25 14.1667C7.21811 14.1667 8.13229 14.0642 8.91578 13.8809C9.00434 13.8602 9.0921 13.8383 9.17884 13.8151C9.17077 13.9313 9.16666 14.0485 9.16666 14.1667C9.16666 14.2099 9.16721 14.2529 9.1683 14.2958ZM10.8333 14.1667C10.8333 16.0077 12.3257 17.5001 14.1667 17.5001C16.0076 17.5001 17.5 16.0077 17.5 14.1667C17.5 12.3258 16.0076 10.8334 14.1667 10.8334C12.3257 10.8334 10.8333 12.3258 10.8333 14.1667Z" fill="#131313"/>
</svg>
