<svg width="20" height="20" viewBox="0 0 20 20" fill="none" xmlns="http://www.w3.org/2000/svg">
<path fill-rule="evenodd" clip-rule="evenodd" d="M4.41073 4.41083C4.73617 4.08539 5.26381 4.08539 5.58925 4.41083L9.99999 8.82157L14.4107 4.41083C14.7362 4.08539 15.2638 4.08539 15.5892 4.41083C15.9147 4.73626 15.9147 5.2639 15.5892 5.58934L11.1785 10.0001L15.5892 14.4108C15.9147 14.7363 15.9147 15.2639 15.5892 15.5893C15.2638 15.9148 14.7362 15.9148 14.4107 15.5893L9.99999 11.1786L5.58925 15.5893C5.26381 15.9148 4.73617 15.9148 4.41073 15.5893C4.0853 15.2639 4.0853 14.7363 4.41073 14.4108L8.82148 10.0001L4.41073 5.58934C4.0853 5.2639 4.0853 4.73626 4.41073 4.41083Z" fill="white"/>
</svg>
