<svg width="20" height="20" viewBox="0 0 20 20" fill="none" xmlns="http://www.w3.org/2000/svg">
<path fill-rule="evenodd" clip-rule="evenodd" d="M7.91666 3.33333C6.53595 3.33333 5.41667 4.45262 5.41667 5.83333C5.41667 7.21405 6.53595 8.33333 7.91666 8.33333C9.29738 8.33333 10.4167 7.21405 10.4167 5.83333C10.4167 4.45262 9.29738 3.33333 7.91666 3.33333ZM3.75 5.83333C3.75 3.53215 5.61548 1.66667 7.91666 1.66667C10.2179 1.66667 12.0833 3.53215 12.0833 5.83333C12.0833 8.13452 10.2179 10 7.91666 10C5.61548 10 3.75 8.13452 3.75 5.83333ZM12.1442 2.42962C12.3169 2.00301 12.8027 1.79716 13.2293 1.96985C14.7548 2.58734 15.8333 4.08339 15.8333 5.83333C15.8333 7.58328 14.7548 9.07933 13.2293 9.69682C12.8027 9.8695 12.3169 9.66366 12.1442 9.23705C11.9715 8.81044 12.1774 8.32461 12.604 8.15192C13.5217 7.78043 14.1667 6.8812 14.1667 5.83333C14.1667 4.78547 13.5217 3.88624 12.604 3.51475C12.1774 3.34206 11.9715 2.85623 12.1442 2.42962ZM6.63706 11.6667H9.19627C9.94773 11.6667 10.5539 11.6667 11.0472 11.7003C11.5545 11.7349 12.0031 11.8079 12.4278 11.9838C13.4488 12.4067 14.2599 13.2179 14.6828 14.2388C14.8588 14.6636 14.9317 15.1121 14.9663 15.6194C15 16.1128 15 16.7189 15 17.4704V17.5C15 17.9602 14.6269 18.3333 14.1667 18.3333C13.7064 18.3333 13.3333 17.9602 13.3333 17.5C13.3333 16.712 13.3329 16.1628 13.3035 15.7329C13.2747 15.3104 13.2208 15.0644 13.143 14.8766C12.8893 14.2641 12.4026 13.7774 11.79 13.5236C11.6022 13.4458 11.3562 13.3919 10.9338 13.3631C10.5039 13.3338 9.95464 13.3333 9.16666 13.3333H6.66667C5.87869 13.3333 5.32945 13.3338 4.89954 13.3631C4.47711 13.3919 4.23111 13.4458 4.04329 13.5236C3.43072 13.7774 2.94403 14.2641 2.6903 14.8766C2.6125 15.0644 2.5586 15.3104 2.52978 15.7329C2.50045 16.1628 2.5 16.712 2.5 17.5C2.5 17.9602 2.1269 18.3333 1.66667 18.3333C1.20643 18.3333 0.833332 17.9602 0.833332 17.5L0.833332 17.4704C0.833326 16.7189 0.833322 16.1128 0.866982 15.6194C0.901594 15.1121 0.974564 14.6636 1.1505 14.2388C1.57339 13.2179 2.38453 12.4067 3.40548 11.9838C3.83023 11.8079 4.2788 11.7349 4.78609 11.7003C5.27943 11.6667 5.8856 11.6667 6.63706 11.6667ZM15.0263 12.3973C15.141 11.9516 15.5953 11.6833 16.041 11.798C17.838 12.2605 19.1667 13.8907 19.1667 15.8333V17.5C19.1667 17.9602 18.7936 18.3333 18.3333 18.3333C17.8731 18.3333 17.5 17.9602 17.5 17.5V15.8333C17.5 14.6696 16.7041 13.6896 15.6256 13.412C15.1799 13.2973 14.9116 12.843 15.0263 12.3973Z" fill="#131313"/>
</svg>
