<svg width="20" height="20" viewBox="0 0 20 20" fill="none" xmlns="http://www.w3.org/2000/svg">
<path fill-rule="evenodd" clip-rule="evenodd" d="M6.46557 1.66675L8.33332 1.66675C8.79356 1.66675 9.16666 2.03984 9.16666 2.50008C9.16666 2.96032 8.79356 3.33342 8.33332 3.33342H6.49999C5.78617 3.33342 5.30093 3.33406 4.92586 3.36471C4.56051 3.39456 4.37367 3.44866 4.24334 3.51507C3.92974 3.67486 3.67477 3.92983 3.51498 4.24343C3.44857 4.37376 3.39447 4.5606 3.36462 4.92595C3.33397 5.30102 3.33332 5.78627 3.33332 6.50008V13.5001C3.33332 14.2139 3.33397 14.6991 3.36462 15.0742C3.39447 15.4396 3.44857 15.6264 3.51498 15.7567C3.67477 16.0703 3.92974 16.3253 4.24334 16.4851C4.37367 16.5515 4.56051 16.6056 4.92586 16.6355C5.30093 16.6661 5.78617 16.6667 6.49999 16.6667H13.5C14.2138 16.6667 14.6991 16.6661 15.0741 16.6355C15.4395 16.6056 15.6263 16.5515 15.7566 16.4851C16.0702 16.3253 16.3252 16.0703 16.485 15.7567C16.5514 15.6264 16.6055 15.4396 16.6354 15.0742C16.666 14.6991 16.6667 14.2139 16.6667 13.5001V11.6667C16.6667 11.2065 17.0398 10.8334 17.5 10.8334C17.9602 10.8334 18.3333 11.2065 18.3333 11.6667V13.5345C18.3333 14.2053 18.3333 14.7589 18.2965 15.2099C18.2582 15.6784 18.1761 16.1089 17.97 16.5134C17.6504 17.1406 17.1405 17.6505 16.5133 17.9701C16.1088 18.1762 15.6783 18.2583 15.2098 18.2966C14.7589 18.3334 14.2052 18.3334 13.5344 18.3334H6.46555C5.79475 18.3334 5.24113 18.3334 4.79014 18.2966C4.32172 18.2583 3.89114 18.1762 3.48669 17.9701C2.85948 17.6505 2.34955 17.1406 2.02997 16.5134C1.82389 16.1089 1.74176 15.6784 1.70349 15.2099C1.66664 14.7589 1.66665 14.2053 1.66666 13.5345V6.46567C1.66665 5.79486 1.66664 5.24122 1.70349 4.79023C1.74176 4.32181 1.82389 3.89123 2.02997 3.48678C2.34955 2.85957 2.85948 2.34964 3.48669 2.03006C3.89114 1.82398 4.32172 1.74185 4.79014 1.70358C5.24113 1.66673 5.79477 1.66674 6.46557 1.66675ZM11.6666 2.50009C11.6666 2.03985 12.0397 1.66676 12.5 1.66676H17.5C17.9602 1.66676 18.3333 2.03985 18.3333 2.50009L18.3333 7.50009C18.3333 7.96033 17.9602 8.33342 17.5 8.33342C17.0397 8.33342 16.6666 7.96033 16.6666 7.50009L16.6666 4.51194L10.5892 10.5893C10.2638 10.9148 9.73617 10.9148 9.41073 10.5893C9.0853 10.2639 9.0853 9.73626 9.41073 9.41083L15.4881 3.33342H12.5C12.0397 3.33342 11.6666 2.96033 11.6666 2.50009Z" fill="#979797"/>
</svg>
