<svg width="41" height="40" viewBox="0 0 41 40" fill="none" xmlns="http://www.w3.org/2000/svg">
<path d="M20.6602 33C27.8399 33 33.6602 27.1797 33.6602 20C33.6602 12.8203 27.8399 7 20.6602 7C13.4805 7 7.66016 12.8203 7.66016 20C7.66016 27.1797 13.4805 33 20.6602 33Z" fill="url(#paint0_linear_677_3421)" fill-opacity="0.24" stroke="white" stroke-linecap="round" stroke-linejoin="round"/>
<path opacity="0.4" d="M20.6602 18C21.1906 18 21.6993 18.2107 22.0744 18.5858C22.4495 18.9609 22.6602 19.4696 22.6602 20C22.6602 20.5304 22.4495 21.0391 22.0744 21.4142C21.6993 21.7893 21.1906 22 20.6602 22C20.1298 22 19.6211 21.7893 19.246 21.4142C18.8709 21.0391 18.6602 20.5304 18.6602 20C18.6602 19.4696 18.8709 18.9609 19.246 18.5858C19.6211 18.2107 20.1298 18 20.6602 18Z" fill="#030014" stroke="white" stroke-linecap="round" stroke-linejoin="round"/>
<path d="M20.6602 5C21.1906 5 21.6993 5.21071 22.0744 5.58579C22.4495 5.96086 22.6602 6.46957 22.6602 7C22.6602 7.53043 22.4495 8.03914 22.0744 8.41421C21.6993 8.78929 21.1906 9 20.6602 9C20.1298 9 19.6211 8.78929 19.246 8.41421C18.8709 8.03914 18.6602 7.53043 18.6602 7C18.6602 6.46957 18.8709 5.96086 19.246 5.58579C19.6211 5.21071 20.1298 5 20.6602 5ZM20.6602 31C21.1906 31 21.6993 31.2107 22.0744 31.5858C22.4495 31.9609 22.6602 32.4696 22.6602 33C22.6602 33.5304 22.4495 34.0391 22.0744 34.4142C21.6993 34.7893 21.1906 35 20.6602 35C20.1298 35 19.6211 34.7893 19.246 34.4142C18.8709 34.0391 18.6602 33.5304 18.6602 33C18.6602 32.4696 18.8709 31.9609 19.246 31.5858C19.6211 31.2107 20.1298 31 20.6602 31ZM33.6602 18C34.1906 18 34.6993 18.2107 35.0744 18.5858C35.4495 18.9609 35.6602 19.4696 35.6602 20C35.6602 20.5304 35.4495 21.0391 35.0744 21.4142C34.6993 21.7893 34.1906 22 33.6602 22C33.1298 22 32.6211 21.7893 32.246 21.4142C31.8709 21.0391 31.6602 20.5304 31.6602 20C31.6602 19.4696 31.8709 18.9609 32.246 18.5858C32.6211 18.2107 33.1298 18 33.6602 18ZM7.66016 18C8.19059 18 8.6993 18.2107 9.07437 18.5858C9.44945 18.9609 9.66016 19.4696 9.66016 20C9.66016 20.5304 9.44945 21.0391 9.07437 21.4142C8.6993 21.7893 8.19059 22 7.66016 22C7.12973 22 6.62102 21.7893 6.24595 21.4142C5.87087 21.0391 5.66016 20.5304 5.66016 20C5.66016 19.4696 5.87087 18.9609 6.24595 18.5858C6.62102 18.2107 7.12973 18 7.66016 18Z" fill="#030014" stroke="white" stroke-linecap="round" stroke-linejoin="round"/>
<defs>
<linearGradient id="paint0_linear_677_3421" x1="20.6602" y1="7" x2="20.6602" y2="33" gradientUnits="userSpaceOnUse">
<stop stop-color="white" stop-opacity="0"/>
<stop offset="1" stop-color="white"/>
</linearGradient>
</defs>
</svg>
